<!--?xml version="1.0" standalone="no"?-->
              <svg id="sw-js-blob-svg" viewBox="0 0 100 100" xmlns="http://www.w3.org/2000/svg" version="1.1">
                    <defs> 
                        <linearGradient id="sw-gradient" x1="0" x2="1" y1="1" y2="0">
                            <stop id="stop1" stop-color="rgba(248, 117, 55, 1)" offset="0%" data-darkreader-inline-stopcolor="" style="--darkreader-inline-stopcolor:#a43000;"></stop>
                            <stop id="stop2" stop-color="rgba(251, 168, 31, 1)" offset="100%" data-darkreader-inline-stopcolor="" style="--darkreader-inline-stopcolor:#b56c00;"></stop>
                        </linearGradient>
                    </defs>
                <path fill="url(#sw-gradient)" d="M21.1,-29.1C24.6,-22.2,22.8,-13,23.2,-5C23.6,3,26.1,9.8,25.1,17.3C24.1,24.9,19.6,33.2,13.6,34C7.5,34.9,-0.2,28.2,-7.8,24.2C-15.3,20.2,-22.8,18.9,-27.6,14.2C-32.4,9.5,-34.4,1.6,-32,-4.5C-29.6,-10.7,-22.8,-14.9,-16.8,-21.4C-10.7,-27.8,-5.4,-36.4,1.7,-38.4C8.8,-40.5,17.6,-36,21.1,-29.1Z" width="100%" height="100%" transform="translate(50 50)" stroke-width="0" style="transition: all 0.3s ease 0s;" stroke="url(#sw-gradient)"></path>
              </svg>