<!--?xml version="1.0" standalone="no"?-->
              <svg id="sw-js-blob-svg" viewBox="0 0 100 100" xmlns="http://www.w3.org/2000/svg" version="1.1">
                    <defs> 
                        <linearGradient id="sw-gradient" x1="0" x2="1" y1="1" y2="0">
                            <stop id="stop1" stop-color="rgba(248, 117, 55, 1)" offset="0%" data-darkreader-inline-stopcolor="" style="--darkreader-inline-stopcolor:#a43000;"></stop>
                            <stop id="stop2" stop-color="rgba(251, 168, 31, 1)" offset="100%" data-darkreader-inline-stopcolor="" style="--darkreader-inline-stopcolor:#b56c00;"></stop>
                        </linearGradient>
                    </defs>
                <path fill="url(#sw-gradient)" d="M27.4,-31.4C35.4,-25.9,41.8,-17.2,42.3,-8.4C42.8,0.5,37.3,9.4,31.5,16.9C25.7,24.4,19.4,30.3,11.3,34.9C3.3,39.5,-6.7,42.6,-14.5,39.8C-22.3,37,-28,28.2,-30.9,19.6C-33.9,11,-34,2.5,-33.4,-6.7C-32.7,-15.8,-31.1,-25.5,-25.4,-31.4C-19.7,-37.3,-9.9,-39.3,-0.1,-39.2C9.7,-39.1,19.3,-36.8,27.4,-31.4Z" width="100%" height="100%" transform="translate(50 50)" stroke-width="0" style="transition: all 0.3s ease 0s;" stroke="url(#sw-gradient)"></path>
              </svg>