<?xml version="1.0" standalone="no"?>
<svg viewBox="0 0 200 200" xmlns="http://www.w3.org/2000/svg">
  <path fill="#9EF0F0" d="M37.9,-66.2C47.1,-60.4,51,-46,56,-33.6C61.1,-21.1,67.3,-10.6,68.9,0.9C70.5,12.4,67.5,24.8,61,34.8C54.5,44.7,44.5,52.2,33.7,62.5C22.9,72.8,11.5,86,-0.8,87.4C-13.1,88.8,-26.2,78.4,-38.8,69.1C-51.3,59.9,-63.4,51.7,-68.1,40.4C-72.9,29,-70.3,14.5,-70.7,-0.2C-71.1,-15,-74.5,-30,-68.5,-39.2C-62.5,-48.3,-47.1,-51.6,-34.1,-55.2C-21.1,-58.8,-10.6,-62.7,1.9,-66C14.4,-69.3,28.8,-72,37.9,-66.2Z" transform="translate(100 100)" />
</svg>
